<svg width="1177" height="845" viewBox="0 0 1177 845" fill="none" xmlns="http://www.w3.org/2000/svg">
  <line y1="-0.5" x2="900" y2="-0.5" transform="matrix(4.37114e-08 -1 -1 -4.37114e-08 0 845)"
    stroke="url(#paint0_linear_72_362)" stroke-opacity="0.05" />
  <line y1="-0.5" x2="92" y2="-0.5" transform="matrix(-4.37114e-08 -1 -1 4.37114e-08 0 153)"
    stroke="url(#paint1_linear_72_362)" />
  <line y1="-0.5" x2="900" y2="-0.5" transform="matrix(4.37114e-08 -1 -1 -4.37114e-08 168 845)"
    stroke="url(#paint2_linear_72_362)" stroke-opacity="0.05" />
  <line y1="-0.5" x2="92" y2="-0.5" transform="matrix(-4.37114e-08 -1 -1 4.37114e-08 168 203)"
    stroke="url(#paint3_linear_72_362)" />
  <line y1="-0.5" x2="900" y2="-0.5" transform="matrix(4.37114e-08 -1 -1 -4.37114e-08 336 845)"
    stroke="url(#paint4_linear_72_362)" stroke-opacity="0.05" />
  <line y1="-0.5" x2="92" y2="-0.5" transform="matrix(-4.37114e-08 -1 -1 4.37114e-08 336 261)"
    stroke="url(#paint5_linear_72_362)" />
  <line y1="-0.5" x2="900" y2="-0.5" transform="matrix(4.37114e-08 -1 -1 -4.37114e-08 504 845)"
    stroke="url(#paint6_linear_72_362)" stroke-opacity="0.05" />
  <line y1="-0.5" x2="92" y2="-0.5" transform="matrix(-4.37114e-08 -1 -1 4.37114e-08 504 306)"
    stroke="url(#paint7_linear_72_362)" />
  <line y1="-0.5" x2="900" y2="-0.5" transform="matrix(4.37114e-08 -1 -1 -4.37114e-08 672 845)"
    stroke="url(#paint8_linear_72_362)" stroke-opacity="0.05" />
  <line y1="-0.5" x2="92" y2="-0.5" transform="matrix(-4.37114e-08 -1 -1 4.37114e-08 672 306)"
    stroke="url(#paint9_linear_72_362)" />
  <line y1="-0.5" x2="900" y2="-0.5" transform="matrix(4.37114e-08 -1 -1 -4.37114e-08 840 845)"
    stroke="url(#paint10_linear_72_362)" stroke-opacity="0.05" />
  <line y1="-0.5" x2="92" y2="-0.5" transform="matrix(-4.37114e-08 -1 -1 4.37114e-08 840 261)"
    stroke="url(#paint11_linear_72_362)" />
  <line y1="-0.5" x2="900" y2="-0.5" transform="matrix(4.37114e-08 -1 -1 -4.37114e-08 1008 845)"
    stroke="url(#paint12_linear_72_362)" stroke-opacity="0.05" />
  <line y1="-0.5" x2="92" y2="-0.5" transform="matrix(-4.37114e-08 -1 -1 4.37114e-08 1008 203)"
    stroke="url(#paint13_linear_72_362)" />
  <line y1="-0.5" x2="900" y2="-0.5" transform="matrix(4.37114e-08 -1 -1 -4.37114e-08 1176 845)"
    stroke="url(#paint14_linear_72_362)" stroke-opacity="0.05" />
  <line y1="-0.5" x2="92" y2="-0.5" transform="matrix(-4.37114e-08 -1 -1 4.37114e-08 1176 153)"
    stroke="url(#paint15_linear_72_362)" />
  <defs>
    <linearGradient id="paint0_linear_72_362" x1="841.5" y1="1.02325" x2="-25.5" y2="1.02321"
      gradientUnits="userSpaceOnUse">
      <stop stop-color="white" />
      <stop offset="0.823742" stop-color="white" stop-opacity="0" />
    </linearGradient>
    <linearGradient id="paint1_linear_72_362" x1="4.37162e-08" y1="1.00005" x2="60" y2="1.00005"
      gradientUnits="userSpaceOnUse">
      <stop stop-color="#044FC7" stop-opacity="0" />
      <stop offset="0.53" stop-color="#5988D2" stop-opacity="0.8" />
      <stop offset="1" stop-color="#044FC7" stop-opacity="0" />
    </linearGradient>
    <linearGradient id="paint2_linear_72_362" x1="841.5" y1="1.02325" x2="-25.5" y2="1.02321"
      gradientUnits="userSpaceOnUse">
      <stop stop-color="white" />
      <stop offset="0.823742" stop-color="white" stop-opacity="0" />
    </linearGradient>
    <linearGradient id="paint3_linear_72_362" x1="4.37162e-08" y1="1.00005" x2="60" y2="1.00005"
      gradientUnits="userSpaceOnUse">
      <stop stop-color="#044FC7" stop-opacity="0" />
      <stop offset="0.53" stop-color="#5988D2" stop-opacity="0.8" />
      <stop offset="1" stop-color="#044FC7" stop-opacity="0" />
    </linearGradient>
    <linearGradient id="paint4_linear_72_362" x1="639.5" y1="2.79534e-05" x2="0" y2="-1.5905e-09"
      gradientUnits="userSpaceOnUse">
      <stop stop-color="white" />
      <stop offset="0.63" stop-color="white" stop-opacity="0" />
    </linearGradient>
    <linearGradient id="paint5_linear_72_362" x1="4.37162e-08" y1="1.00005" x2="60" y2="1.00005"
      gradientUnits="userSpaceOnUse">
      <stop stop-color="#044FC7" stop-opacity="0" />
      <stop offset="0.53" stop-color="#5988D2" stop-opacity="0.8" />
      <stop offset="1" stop-color="#044FC7" stop-opacity="0" />
    </linearGradient>
    <linearGradient id="paint6_linear_72_362" x1="565" y1="2.46969e-05" x2="0" y2="-1.41842e-09"
      gradientUnits="userSpaceOnUse">
      <stop stop-color="white" />
      <stop offset="0.41" stop-color="white" stop-opacity="0" />
    </linearGradient>
    <linearGradient id="paint7_linear_72_362" x1="4.37162e-08" y1="1.00005" x2="60" y2="1.00005"
      gradientUnits="userSpaceOnUse">
      <stop stop-color="#044FC7" stop-opacity="0" />
      <stop offset="0.53" stop-color="#5988D2" stop-opacity="0.8" />
      <stop offset="1" stop-color="#044FC7" stop-opacity="0" />
    </linearGradient>
    <linearGradient id="paint8_linear_72_362" x1="558" y1="2.43909e-05" x2="0" y2="-1.38765e-09"
      gradientUnits="userSpaceOnUse">
      <stop stop-color="white" />
      <stop offset="0.445" stop-color="white" stop-opacity="0" />
    </linearGradient>
    <linearGradient id="paint9_linear_72_362" x1="4.37162e-08" y1="1.00005" x2="60" y2="1.00005"
      gradientUnits="userSpaceOnUse">
      <stop stop-color="#044FC7" stop-opacity="0" />
      <stop offset="0.53" stop-color="#5988D2" stop-opacity="0.8" />
      <stop offset="1" stop-color="#044FC7" stop-opacity="0" />
    </linearGradient>
    <linearGradient id="paint10_linear_72_362" x1="632.5" y1="0.971416" x2="129.5" y2="0.971394"
      gradientUnits="userSpaceOnUse">
      <stop stop-color="white" />
      <stop offset="1" stop-color="white" stop-opacity="0" />
    </linearGradient>
    <linearGradient id="paint11_linear_72_362" x1="4.37162e-08" y1="1.00005" x2="60" y2="1.00005"
      gradientUnits="userSpaceOnUse">
      <stop stop-color="#044FC7" stop-opacity="0" />
      <stop offset="0.53" stop-color="#5988D2" stop-opacity="0.8" />
      <stop offset="1" stop-color="#044FC7" stop-opacity="0" />
    </linearGradient>
    <linearGradient id="paint12_linear_72_362" x1="803" y1="1.00683" x2="21" y2="1.00679"
      gradientUnits="userSpaceOnUse">
      <stop stop-color="white" />
      <stop offset="1" stop-color="white" stop-opacity="0" />
    </linearGradient>
    <linearGradient id="paint13_linear_72_362" x1="4.37162e-08" y1="1.00005" x2="60" y2="1.00005"
      gradientUnits="userSpaceOnUse">
      <stop stop-color="#044FC7" stop-opacity="0" />
      <stop offset="0.53" stop-color="#5988D2" stop-opacity="0.8" />
      <stop offset="1" stop-color="#044FC7" stop-opacity="0" />
    </linearGradient>
    <linearGradient id="paint14_linear_72_362" x1="803" y1="1.00683" x2="21" y2="1.00679"
      gradientUnits="userSpaceOnUse">
      <stop stop-color="white" />
      <stop offset="1" stop-color="white" stop-opacity="0" />
    </linearGradient>
    <linearGradient id="paint15_linear_72_362" x1="4.37162e-08" y1="1.00005" x2="60" y2="1.00005"
      gradientUnits="userSpaceOnUse">
      <stop stop-color="#044FC7" stop-opacity="0" />
      <stop offset="0.53" stop-color="#5988D2" stop-opacity="0.8" />
      <stop offset="1" stop-color="#044FC7" stop-opacity="0" />
    </linearGradient>
  </defs>
</svg>